<?xml version="1.0" encoding="UTF-8"?>
<!--Generator: Apple Native CoreSVG 175.5-->
<!DOCTYPE svg
PUBLIC "-//W3C//DTD SVG 1.1//EN"
       "http://www.w3.org/Graphics/SVG/1.1/DTD/svg11.dtd">
<svg version="1.1" xmlns="http://www.w3.org/2000/svg" xmlns:xlink="http://www.w3.org/1999/xlink" width="8.96484" height="8.96924">
 <g>
  <rect height="8.96924" opacity="0" width="8.96484" x="0" y="0"/>
  <path d="M4.48242 8.96484C6.93457 8.96484 8.96484 6.93018 8.96484 4.48242C8.96484 2.03027 6.93018 0 4.47803 0C2.03027 0 0 2.03027 0 4.48242C0 6.93018 2.03467 8.96484 4.48242 8.96484ZM4.48242 8.21777C2.4082 8.21777 0.751465 6.55664 0.751465 4.48242C0.751465 2.4082 2.40381 0.74707 4.47803 0.74707C6.55225 0.74707 8.21777 2.4082 8.21777 4.48242C8.21777 6.55664 6.55664 8.21777 4.48242 8.21777ZM4.47803 6.84229C5.76123 6.84229 6.8335 5.77002 6.8335 4.48682C6.8335 3.20801 5.75684 2.13135 4.47803 2.13135C3.19482 2.13135 2.12695 3.20361 2.12695 4.48682C2.12695 5.76562 3.19922 6.84229 4.47803 6.84229ZM4.47803 6.15674C3.57275 6.15674 2.8125 5.39648 2.8125 4.48682C2.8125 3.57275 3.56396 2.81689 4.47803 2.81689C5.3877 2.81689 6.14355 3.57715 6.14355 4.48682C6.14355 5.40088 5.39209 6.15674 4.47803 6.15674Z" fill="#ffffff"/>
 </g>
</svg>
