<svg version="1.1" xmlns="http://www.w3.org/2000/svg" xmlns:xlink="http://www.w3.org/1999/xlink" width="9.18457" height="9.18896">
 <g>
  <rect height="9.18896" opacity="0" width="9.18457" x="0" y="0"/>
  <path d="M4.18799 9.18457L4.99658 9.18457C5.2251 9.18457 5.39209 9.04834 5.44043 8.82422L5.66895 7.85742C5.84033 7.80029 6.00732 7.73438 6.15234 7.66406L7.00049 8.18262C7.18945 8.30127 7.40479 8.28369 7.56299 8.12549L8.12988 7.56299C8.28809 7.40479 8.31006 7.17627 8.18262 6.9873L7.66406 6.14795C7.73877 5.99414 7.80469 5.83594 7.85303 5.67773L8.82861 5.44482C9.05273 5.39648 9.18457 5.22949 9.18457 5.00098L9.18457 4.20557C9.18457 3.98145 9.05273 3.81445 8.82861 3.76611L7.86182 3.5332C7.80469 3.35303 7.73438 3.19043 7.67285 3.0542L8.19141 2.20166C8.31445 2.0127 8.30127 1.79736 8.13867 1.63916L7.56299 1.07227C7.40039 0.922852 7.20703 0.896484 7.01367 1.00635L6.15234 1.53809C6.01172 1.46338 5.84912 1.39746 5.66895 1.34033L5.44043 0.360352C5.39209 0.13623 5.2251 0 4.99658 0L4.18799 0C3.95947 0 3.79248 0.13623 3.73975 0.360352L3.51123 1.33154C3.33984 1.38867 3.17285 1.45459 3.02344 1.53369L2.1709 1.00635C1.97754 0.896484 1.77979 0.918457 1.61719 1.07227L1.0459 1.63916C0.883301 1.79736 0.865723 2.0127 0.993164 2.20166L1.50732 3.0542C1.4502 3.19043 1.37988 3.35303 1.32275 3.5332L0.355957 3.76611C0.131836 3.81445 0 3.98145 0 4.20557L0 5.00098C0 5.22949 0.131836 5.39648 0.355957 5.44482L1.33154 5.67773C1.37988 5.83594 1.4458 5.99414 1.51611 6.14795L1.00195 6.9873C0.870117 7.17627 0.896484 7.40479 1.05469 7.56299L1.61719 8.12549C1.77539 8.28369 1.99512 8.30127 2.18408 8.18262L3.02783 7.66406C3.17725 7.73438 3.33984 7.80029 3.51123 7.85742L3.73975 8.82422C3.79248 9.04834 3.95947 9.18457 4.18799 9.18457ZM4.59229 6.14355C3.73975 6.14355 3.04102 5.44043 3.04102 4.58789C3.04102 3.73975 3.73975 3.04102 4.59229 3.04102C5.44482 3.04102 6.14355 3.73975 6.14355 4.58789C6.14355 5.44043 5.44482 6.14355 4.59229 6.14355Z" fill="#ffffff" fill-opacity="0.85"/>
 </g>
</svg>
