<?xml version="1.0" encoding="UTF-8"?>
<!--Generator: Apple Native CoreSVG 175.5-->
<!DOCTYPE svg
PUBLIC "-//W3C//DTD SVG 1.1//EN"
       "http://www.w3.org/Graphics/SVG/1.1/DTD/svg11.dtd">
<svg version="1.1" xmlns="http://www.w3.org/2000/svg" xmlns:xlink="http://www.w3.org/1999/xlink" width="8.96484" height="8.96924">
 <g>
  <rect height="8.96924" opacity="0" width="8.96484" x="0" y="0"/>
  <path d="M4.48242 8.96484C6.93457 8.96484 8.96484 6.93018 8.96484 4.48242C8.96484 2.03027 6.93018 0 4.47803 0C2.03027 0 0 2.03027 0 4.48242C0 6.93018 2.03467 8.96484 4.48242 8.96484ZM2.71143 4.86914C2.45215 4.86914 2.27637 4.73291 2.27637 4.49121C2.27637 4.24512 2.44336 4.10449 2.71143 4.10449L6.26221 4.10449C6.52588 4.10449 6.68848 4.24512 6.68848 4.49121C6.68848 4.73291 6.51709 4.86914 6.26221 4.86914Z" fill="#ffffff" fill-opacity="0.85"/>
 </g>
</svg>
