<?xml version="1.0" encoding="UTF-8"?>
<!--Generator: Apple Native CoreSVG 175.5-->
<!DOCTYPE svg
PUBLIC "-//W3C//DTD SVG 1.1//EN"
       "http://www.w3.org/Graphics/SVG/1.1/DTD/svg11.dtd">
<svg version="1.1" xmlns="http://www.w3.org/2000/svg" xmlns:xlink="http://www.w3.org/1999/xlink" width="8.09033" height="8.09912">
 <g>
  <rect height="8.09912" opacity="0" width="8.09033" x="0" y="0"/>
  <path d="M1.37988 8.09912L6.71045 8.09912C7.6333 8.09912 8.09033 7.64209 8.09033 6.73682L8.09033 1.37109C8.09033 0.46582 7.6333 0.00878906 6.71045 0.00878906L1.37988 0.00878906C0.461426 0.00878906 0 0.461426 0 1.37109L0 6.73682C0 7.64648 0.461426 8.09912 1.37988 8.09912ZM1.38867 7.3916C0.949219 7.3916 0.70752 7.15869 0.70752 6.70166L0.70752 1.40625C0.70752 0.949219 0.949219 0.716309 1.38867 0.716309L6.70166 0.716309C7.13672 0.716309 7.38281 0.949219 7.38281 1.40625L7.38281 6.70166C7.38281 7.15869 7.13672 7.3916 6.70166 7.3916ZM2.0127 4.04736C2.0127 4.2627 2.16211 4.40771 2.38623 4.40771L3.67822 4.40771L3.67822 5.7041C3.67822 5.92383 3.82764 6.07764 4.04297 6.07764C4.2627 6.07764 4.4165 5.92822 4.4165 5.7041L4.4165 4.40771L5.71289 4.40771C5.93262 4.40771 6.08643 4.2627 6.08643 4.04736C6.08643 3.82764 5.93262 3.67383 5.71289 3.67383L4.4165 3.67383L4.4165 2.38184C4.4165 2.15771 4.2627 2.00391 4.04297 2.00391C3.82764 2.00391 3.67822 2.15771 3.67822 2.38184L3.67822 3.67383L2.38623 3.67383C2.16211 3.67383 2.0127 3.82764 2.0127 4.04736Z" fill="#ffffff" fill-opacity="0.85"/>
 </g>
</svg>
