<?xml version="1.0" encoding="UTF-8"?>
<!--Generator: Apple Native CoreSVG 175.5-->
<!DOCTYPE svg
PUBLIC "-//W3C//DTD SVG 1.1//EN"
       "http://www.w3.org/Graphics/SVG/1.1/DTD/svg11.dtd">
<svg version="1.1" xmlns="http://www.w3.org/2000/svg" xmlns:xlink="http://www.w3.org/1999/xlink" width="8.96484" height="8.96924">
 <g>
  <rect height="8.96924" opacity="0" width="8.96484" x="0" y="0"/>
  <path d="M4.48242 8.96484C6.93457 8.96484 8.96484 6.93018 8.96484 4.48242C8.96484 2.03027 6.93018 0 4.47803 0C2.03027 0 0 2.03027 0 4.48242C0 6.93018 2.03467 8.96484 4.48242 8.96484ZM2.33789 4.48682C2.33789 4.2583 2.49609 4.1001 2.72461 4.1001L4.1001 4.1001L4.1001 2.72461C4.1001 2.49609 4.25391 2.3335 4.47803 2.3335C4.70654 2.3335 4.86475 2.49609 4.86475 2.72461L4.86475 4.1001L6.24463 4.1001C6.46875 4.1001 6.63135 4.2583 6.63135 4.48682C6.63135 4.71094 6.46875 4.86035 6.24463 4.86035L4.86475 4.86035L4.86475 6.24023C4.86475 6.46875 4.70654 6.62695 4.47803 6.62695C4.25391 6.62695 4.1001 6.46436 4.1001 6.24023L4.1001 4.86035L2.72461 4.86035C2.49609 4.86035 2.33789 4.71094 2.33789 4.48682Z" fill="#ffffff" fill-opacity="0.85"/>
 </g>
</svg>
