<?xml version="1.0" encoding="UTF-8"?>
<!--Generator: Apple Native CoreSVG 175.5-->
<!DOCTYPE svg
PUBLIC "-//W3C//DTD SVG 1.1//EN"
       "http://www.w3.org/Graphics/SVG/1.1/DTD/svg11.dtd">
<svg version="1.1" xmlns="http://www.w3.org/2000/svg" xmlns:xlink="http://www.w3.org/1999/xlink" width="8.96484" height="8.96924">
 <g>
  <rect height="8.96924" opacity="0" width="8.96484" x="0" y="0"/>
  <path d="M4.48242 8.96484C6.93457 8.96484 8.96484 6.93018 8.96484 4.48242C8.96484 2.03027 6.93018 0 4.47803 0C2.03027 0 0 2.03027 0 4.48242C0 6.93018 2.03467 8.96484 4.48242 8.96484ZM4.48242 8.21777C2.4082 8.21777 0.751465 6.55664 0.751465 4.48242C0.751465 2.4082 2.40381 0.74707 4.47803 0.74707C6.55225 0.74707 8.21777 2.4082 8.21777 4.48242C8.21777 6.55664 6.55664 8.21777 4.48242 8.21777ZM2.44336 4.48242C2.44336 4.69775 2.59277 4.84277 2.81689 4.84277L4.10889 4.84277L4.10889 6.13916C4.10889 6.35889 4.2583 6.5127 4.47363 6.5127C4.69336 6.5127 4.84717 6.36328 4.84717 6.13916L4.84717 4.84277L6.14355 4.84277C6.36328 4.84277 6.51709 4.69775 6.51709 4.48242C6.51709 4.2627 6.36328 4.10889 6.14355 4.10889L4.84717 4.10889L4.84717 2.81689C4.84717 2.59277 4.69336 2.43896 4.47363 2.43896C4.2583 2.43896 4.10889 2.59277 4.10889 2.81689L4.10889 4.10889L2.81689 4.10889C2.59277 4.10889 2.44336 4.2627 2.44336 4.48242Z" fill="#ffffff"/>
 </g>
</svg>
