<?xml version="1.0" encoding="UTF-8"?>
<!--Generator: Apple Native CoreSVG 175.5-->
<!DOCTYPE svg
PUBLIC "-//W3C//DTD SVG 1.1//EN"
       "http://www.w3.org/Graphics/SVG/1.1/DTD/svg11.dtd">
<svg version="1.1" xmlns="http://www.w3.org/2000/svg" xmlns:xlink="http://www.w3.org/1999/xlink" width="8.96484" height="8.96924">
 <g>
  <rect height="8.96924" opacity="0" width="8.96484" x="0" y="0"/>
  <path d="M4.48242 8.96484C6.93457 8.96484 8.96484 6.93018 8.96484 4.48242C8.96484 2.03027 6.93018 0 4.47803 0C2.03027 0 0 2.03027 0 4.48242C0 6.93018 2.03467 8.96484 4.48242 8.96484ZM4.48242 8.21777C2.4082 8.21777 0.751465 6.55664 0.751465 4.48242C0.751465 2.4082 2.40381 0.74707 4.47803 0.74707C6.55225 0.74707 8.21777 2.4082 8.21777 4.48242C8.21777 6.55664 6.55664 8.21777 4.48242 8.21777ZM2.97949 6.34131C3.08057 6.34131 3.16846 6.30176 3.23438 6.23145L4.47803 4.9834L5.73047 6.23145C5.79639 6.29736 5.87988 6.34131 5.98096 6.34131C6.17432 6.34131 6.33252 6.18311 6.33252 5.98535C6.33252 5.88428 6.29736 5.80518 6.22705 5.73486L4.979 4.48682L6.23145 3.22998C6.30615 3.15527 6.33691 3.08057 6.33691 2.98389C6.33691 2.79053 6.17871 2.63232 5.98535 2.63232C5.89307 2.63232 5.81836 2.66748 5.74365 2.74219L4.47803 3.99463L3.22559 2.74658C3.15967 2.67627 3.08057 2.64111 2.97949 2.64111C2.78613 2.64111 2.62793 2.79492 2.62793 2.98828C2.62793 3.08496 2.66748 3.16846 2.7334 3.23438L3.98145 4.48682L2.7334 5.73926C2.66748 5.80518 2.62793 5.88867 2.62793 5.98535C2.62793 6.18311 2.78613 6.34131 2.97949 6.34131Z" fill="#ffffff" fill-opacity="0.85"/>
 </g>
</svg>
