<svg version="1.1" xmlns="http://www.w3.org/2000/svg" xmlns:xlink="http://www.w3.org/1999/xlink" width="8.96484" height="8.96924">
 <g>
  <rect height="8.96924" opacity="0" width="8.96484" x="0" y="0"/>
  <path d="M4.48242 8.96484C6.93457 8.96484 8.96484 6.93018 8.96484 4.48242C8.96484 2.03027 6.93018 0 4.47803 0C2.03027 0 0 2.03027 0 4.48242C0 6.93018 2.03467 8.96484 4.48242 8.96484ZM3.00586 6.32812C2.80371 6.32812 2.64551 6.16553 2.64551 5.96338C2.64551 5.8667 2.68066 5.77441 2.75098 5.7085L3.96826 4.48682L2.75098 3.26953C2.68066 3.19922 2.64551 3.11133 2.64551 3.01465C2.64551 2.80811 2.80371 2.6543 3.00586 2.6543C3.10693 2.6543 3.18604 2.68945 3.25635 2.75537L4.48242 3.97705L5.71729 2.75098C5.79199 2.67627 5.87109 2.64551 5.96777 2.64551C6.16992 2.64551 6.33252 2.80371 6.33252 3.00586C6.33252 3.10693 6.30176 3.18604 6.22266 3.26514L5.00098 4.48682L6.21826 5.7041C6.29297 5.77002 6.32812 5.8623 6.32812 5.96338C6.32812 6.16553 6.16553 6.32812 5.95898 6.32812C5.85791 6.32812 5.76562 6.29297 5.69971 6.22266L4.48242 5.00098L3.26953 6.22266C3.19922 6.29297 3.10693 6.32812 3.00586 6.32812Z" fill="#ffffff" fill-opacity="0.85"/>
 </g>
</svg>
